<?xml version="1.0" encoding="UTF-8" standalone="no"?>
<!-- Created with Inkscape (http://www.inkscape.org/) -->

<svg
   width="783.4707mm"
   height="158.65285mm"
   viewBox="0 0 783.4707 158.65285"
   version="1.1"
   id="svg5"
   inkscape:version="1.1.1 (3bf5ae0d25, 2021-09-20)"
   sodipodi:docname="logotype-diario-de-bordo.svg"
   xmlns:inkscape="http://www.inkscape.org/namespaces/inkscape"
   xmlns:sodipodi="http://sodipodi.sourceforge.net/DTD/sodipodi-0.dtd"
   xmlns="http://www.w3.org/2000/svg"
   xmlns:svg="http://www.w3.org/2000/svg">
  <sodipodi:namedview
     id="namedview7"
     pagecolor="#505050"
     bordercolor="#eeeeee"
     borderopacity="1"
     inkscape:pageshadow="0"
     inkscape:pageopacity="0"
     inkscape:pagecheckerboard="0"
     inkscape:document-units="mm"
     showgrid="false"
     fit-margin-top="0"
     fit-margin-left="0"
     fit-margin-right="0"
     fit-margin-bottom="0"
     inkscape:zoom="0.51936728"
     inkscape:cx="1456.58"
     inkscape:cy="127.0777"
     inkscape:window-width="2502"
     inkscape:window-height="991"
     inkscape:window-x="24"
     inkscape:window-y="60"
     inkscape:window-maximized="1"
     inkscape:current-layer="layer1" />
  <defs
     id="defs2" />
  <g
     inkscape:groupmode="layer"
     id="layer2"
     inkscape:label="Camada 2"
     transform="translate(-39.834733,-9.7354667)" />
  <g
     inkscape:label="Camada 1"
     inkscape:groupmode="layer"
     id="layer1"
     transform="translate(-39.834733,-9.7354667)">
    <g
       id="g60145">
      <g
         id="g6512"
         transform="translate(18.22675,-56.845997)">
        <circle
           style="fill:#ffffff;fill-opacity:1;stroke:none;stroke-width:5.29984;stroke-miterlimit:4;stroke-dasharray:none;stroke-opacity:1"
           id="path6407"
           cx="100.38027"
           cy="145.64571"
           r="78.154617" />
        <g
           id="g6303">
          <path
             id="path846"
             style="fill:#333333;fill-opacity:1;stroke:none;stroke-width:0.850023"
             d="M 381.48438,251.64648 A 299.81655,299.81655 0 0 0 81.667969,551.46289 299.81655,299.81655 0 0 0 381.48438,851.2793 299.81655,299.81655 0 0 0 681.30078,551.46289 299.81655,299.81655 0 0 0 381.48438,251.64648 Z m 0.004,22.04297 c 153.34923,0 277.76563,124.42421 277.76563,277.77344 0,153.34923 -124.4164,277.76563 -277.76563,277.76563 -75.66057,0 -144.26694,-30.30076 -194.375,-79.40625 l -13.16406,9.17382 9.17383,-13.16406 C 134.01628,695.726 103.71484,627.12288 103.71484,551.46289 c 0,-153.34923 124.42421,-277.77344 277.77344,-277.77344 z m 0,9.84766 c -148.02825,0 -267.92578,119.89752 -267.92578,267.92578 0,72.36714 28.66547,137.99849 75.25391,186.19727 l 153.44336,-220.20118 19.77539,19.7754 a 23.478953,25.401888 0 0 0 -4.03125,14.22851 23.478953,25.401888 0 0 0 23.48047,25.40039 23.478953,25.401888 0 0 0 14.63867,-5.54101 l 19.36328,19.36328 -220.20117,153.44336 c 48.19914,46.5907 113.834,75.25976 186.20312,75.25976 148.02826,0 267.91797,-119.89752 267.91797,-267.92578 0,-148.02826 -119.88971,-267.92578 -267.91797,-267.92578 z"
             transform="scale(0.26458333)" />
          <path
             id="path2051"
             style="fill:#9ccc65;fill-opacity:1;stroke:none;stroke-width:2.28605;stroke-opacity:1"
             inkscape:transform-center-x="-2.8110976e-06"
             inkscape:transform-center-y="-24.255438"
             d="m 589.01758,343.92773 -241.53711,168.31055 19.36328,19.36328 h 0.002 a 23.478953,25.401888 0 0 1 14.63868,-5.54101 23.478953,25.401888 0 0 1 23.47851,25.40234 23.478953,25.401888 0 0 1 -4.03125,14.22656 l 19.77539,19.77539 z"
             transform="scale(0.26458333)" />
        </g>
      </g>
      <text
         xml:space="preserve"
         style="font-style:normal;font-weight:normal;font-size:66.58px;line-height:1.25;font-family:sans-serif;fill:#333333;fill-opacity:1;stroke:none;stroke-width:1.6645"
         x="215.8965"
         y="116.53147"
         id="text7836"><tspan
           sodipodi:role="line"
           id="tspan7834"
           style="font-style:normal;font-variant:normal;font-weight:normal;font-stretch:normal;font-family:'Space Mono';-inkscape-font-specification:'Space Mono';fill:#333333;fill-opacity:1;stroke-width:1.6645"
           x="215.8965"
           y="116.53147"><tspan
   style="font-style:normal;font-variant:normal;font-weight:normal;font-stretch:normal;font-family:'Space Mono';-inkscape-font-specification:'Space Mono';fill:#ffffff;fill-opacity:1"
   id="tspan25818">D</tspan>iário de <tspan
   style="font-style:normal;font-variant:normal;font-weight:normal;font-stretch:normal;font-family:'Space Mono';-inkscape-font-specification:'Space Mono';fill:#ffffff"
   id="tspan57935">B</tspan>ordo</tspan></text>
    </g>
  </g>
</svg>
